<svg width="390" height="844" viewBox="0 0 390 844" fill="none" xmlns="http://www.w3.org/2000/svg">
<rect width="390" height="844" fill="#F5F5F5"/>
<path d="M-590 -98C-590 -99.1046 -589.105 -100 -588 -100H9468C9469.1 -100 9470 -99.1046 9470 -98V942C9470 943.105 9469.1 944 9468 944H-588C-589.105 944 -590 943.105 -590 942V-98Z" fill="#09041C"/>
<path d="M-588 -99H9468V-101H-588V-99ZM9469 -98V942H9471V-98H9469ZM9468 943H-588V945H9468V943ZM-589 942V-98H-591V942H-589ZM-588 943C-588.552 943 -589 942.552 -589 942H-591C-591 943.657 -589.657 945 -588 945V943ZM9469 942C9469 942.552 9468.55 943 9468 943V945C9469.66 945 9471 943.657 9471 942H9469ZM9468 -99C9468.55 -99 9469 -98.5525 9469 -98H9471C9471 -99.6567 9469.66 -101 9468 -101V-99ZM-588 -101C-589.657 -101 -591 -99.6569 -591 -98H-589C-589 -98.5523 -588.552 -99 -588 -99V-101Z" fill="white" fill-opacity="0.1"/>
<g clip-path="url(#clip0_0_1)">
<rect width="390" height="844" rx="16" fill="white"/>
<g filter="url(#filter0_d_0_1)">
<g clip-path="url(#clip1_0_1)">
<rect width="390" height="844" fill="white"/>
<g opacity="0.5" filter="url(#filter1_f_0_1)">
<circle cx="29" cy="60" r="178" fill="#ED2272"/>
</g>
<g opacity="0.5" filter="url(#filter2_f_0_1)">
<circle cx="411" cy="451" r="193" fill="#00AEEF"/>
</g>
</g>
<rect x="0.5" y="0.5" width="389" height="843" stroke="black"/>
</g>
<rect y="180" width="390" height="664" fill="url(#paint0_linear_0_1)"/>
</g>
<defs>
<filter id="filter0_d_0_1" x="-4" y="0" width="398" height="852" filterUnits="userSpaceOnUse" color-interpolation-filters="sRGB">
<feFlood flood-opacity="0" result="BackgroundImageFix"/>
<feColorMatrix in="SourceAlpha" type="matrix" values="0 0 0 0 0 0 0 0 0 0 0 0 0 0 0 0 0 0 127 0" result="hardAlpha"/>
<feOffset dy="4"/>
<feGaussianBlur stdDeviation="2"/>
<feComposite in2="hardAlpha" operator="out"/>
<feColorMatrix type="matrix" values="0 0 0 0 0 0 0 0 0 0 0 0 0 0 0 0 0 0 0.25 0"/>
<feBlend mode="normal" in2="BackgroundImageFix" result="effect1_dropShadow_0_1"/>
<feBlend mode="normal" in="SourceGraphic" in2="effect1_dropShadow_0_1" result="shape"/>
</filter>
<filter id="filter1_f_0_1" x="-513" y="-482" width="1084" height="1084" filterUnits="userSpaceOnUse" color-interpolation-filters="sRGB">
<feFlood flood-opacity="0" result="BackgroundImageFix"/>
<feBlend mode="normal" in="SourceGraphic" in2="BackgroundImageFix" result="shape"/>
<feGaussianBlur stdDeviation="182" result="effect1_foregroundBlur_0_1"/>
</filter>
<filter id="filter2_f_0_1" x="-76" y="-36" width="974" height="974" filterUnits="userSpaceOnUse" color-interpolation-filters="sRGB">
<feFlood flood-opacity="0" result="BackgroundImageFix"/>
<feBlend mode="normal" in="SourceGraphic" in2="BackgroundImageFix" result="shape"/>
<feGaussianBlur stdDeviation="147" result="effect1_foregroundBlur_0_1"/>
</filter>
<linearGradient id="paint0_linear_0_1" x1="89.8315" y1="844" x2="89.8315" y2="180" gradientUnits="userSpaceOnUse">
<stop offset="0.572917" stop-color="white"/>
<stop offset="1" stop-color="white" stop-opacity="0"/>
</linearGradient>
<clipPath id="clip0_0_1">
<rect width="390" height="844" rx="16" fill="white"/>
</clipPath>
<clipPath id="clip1_0_1">
<rect width="390" height="844" fill="white"/>
</clipPath>
</defs>
</svg>
