<svg width="5658" height="807" viewBox="0 0 5658 807" fill="none" xmlns="http://www.w3.org/2000/svg">
<path d="M622.786 564.338C622.786 702.882 513.227 795.296 345.647 795.296H0.741699V0.31427H341.309C484.191 0.31427 579.819 84.1036 579.819 208.716C579.594 243.536 569.478 277.574 550.649 306.864C531.821 336.154 505.057 359.491 473.474 374.153C515.79 385.063 553.339 409.598 580.324 443.97C607.309 478.343 622.231 520.642 622.786 564.338ZM152.247 324.757H304.772C376.774 324.757 424.027 285.005 424.027 224.842C424.027 165.751 375.703 125.999 305.844 125.999H152.247V324.757ZM467.045 560.052C466.631 544.045 462.865 528.302 455.991 513.84C449.117 499.377 439.288 486.517 427.137 476.088C414.987 465.659 400.785 457.893 385.448 453.291C370.111 448.689 353.979 447.353 338.094 449.37H152.247V669.611H335.951C414.383 669.611 467.045 625.573 467.045 560.052Z" fill="#2F215F"/>
<path d="M627.068 505.246C627.068 325.828 751.63 205.502 937.529 205.502C1122.31 205.502 1246.92 325.828 1246.92 505.246C1246.92 685.736 1122.31 806.011 937.529 806.011C751.783 806.011 627.068 685.736 627.068 505.246ZM1095.41 505.246C1095.41 399.973 1032.03 330.115 937.529 330.115C841.901 330.115 778.522 399.973 778.522 505.246C778.522 610.519 841.901 680.327 937.529 680.327C1032.03 680.327 1095.41 610.519 1095.41 505.246Z" fill="#2F215F"/>
<path d="M1273.76 564.341V216.272H1419.81V556.788C1419.81 589.702 1432.89 621.269 1456.16 644.543C1479.43 667.816 1511 680.891 1543.91 680.891C1576.83 680.891 1608.39 667.816 1631.67 644.543C1654.94 621.269 1668.01 589.702 1668.01 556.788V216.272H1814.11V564.341C1814.11 709.366 1706.64 806.014 1544.47 806.014C1381.18 806.014 1273.76 709.366 1273.76 564.341Z" fill="#2F215F"/>
<path d="M2788.46 431.099V795.294H2642.37V454.725C2643.11 438.672 2640.59 422.634 2634.96 407.582C2629.33 392.53 2620.71 378.777 2609.61 367.153C2598.51 355.529 2585.17 346.276 2570.4 339.955C2555.62 333.633 2539.72 330.374 2523.65 330.374C2507.58 330.374 2491.67 333.633 2476.9 339.955C2462.12 346.276 2448.78 355.529 2437.69 367.153C2426.59 378.777 2417.96 392.53 2412.33 407.582C2406.7 422.634 2404.18 438.672 2404.93 454.725V795.294H2258.83V454.725C2259.58 438.672 2257.06 422.634 2251.43 407.582C2245.8 392.53 2237.17 378.777 2226.08 367.153C2214.98 355.529 2201.64 346.276 2186.86 339.955C2172.09 333.633 2156.18 330.374 2140.11 330.374C2124.04 330.374 2108.14 333.633 2093.36 339.955C2078.59 346.276 2065.25 355.529 2054.15 367.153C2043.05 378.777 2034.43 392.53 2028.8 407.582C2023.17 422.634 2020.65 438.672 2021.39 454.725V795.294H1875.3V216.267H2016.04L2018.18 285.003C2038.78 259.134 2065.16 238.463 2095.21 224.654C2125.25 210.846 2158.12 204.285 2191.17 205.5C2225.3 204.228 2259.2 211.523 2289.78 226.721C2320.36 241.919 2346.65 264.535 2366.25 292.505C2388.22 264.163 2416.65 241.482 2449.16 226.348C2481.68 211.214 2517.33 204.067 2553.17 205.5C2583.87 203.042 2614.74 207.114 2643.75 217.449C2672.76 227.784 2699.25 244.147 2721.48 265.46C2743.71 286.773 2761.17 312.554 2772.72 341.103C2784.26 369.653 2789.63 400.325 2788.46 431.099Z" fill="#2F215F"/>
<path d="M3492.05 564.338C3492.05 702.882 3382.49 795.296 3214.86 795.296H2870V0.31427H3210.57C3353.45 0.31427 3449.03 84.1036 3449.03 208.716C3448.81 243.53 3438.7 277.564 3419.88 306.854C3401.06 336.144 3374.31 359.483 3342.74 374.153C3385.05 385.063 3422.6 409.598 3449.59 443.97C3476.57 478.343 3491.49 520.642 3492.05 564.338ZM3021.51 324.757H3174.03C3245.99 324.757 3293.29 285.005 3293.29 224.842C3293.29 165.751 3244.97 125.999 3175.11 125.999H3021.51V324.757ZM3336.26 560.052C3335.85 544.047 3332.09 528.305 3325.22 513.843C3318.35 499.381 3308.53 486.52 3296.38 476.09C3284.24 465.66 3270.04 457.893 3254.7 453.291C3239.37 448.688 3223.24 447.352 3207.36 449.37H3021.56V669.611H3205.26C3283.7 669.611 3336.26 625.573 3336.26 560.052Z" fill="#2F215F"/>
<path d="M3496.33 505.246C3496.33 325.828 3620.89 205.502 3806.79 205.502C3991.52 205.502 4116.18 325.828 4116.18 505.246C4116.18 685.736 3991.52 806.011 3806.79 806.011C3620.89 806.011 3496.33 685.736 3496.33 505.246ZM3964.68 505.246C3964.68 399.973 3901.3 330.115 3806.79 330.115C3711.16 330.115 3647.73 399.973 3647.73 505.246C3647.73 610.519 3711.16 680.327 3806.79 680.327C3901.3 680.327 3964.68 610.519 3964.68 505.246Z" fill="#2F215F"/>
<path d="M4143.03 564.341V216.272H4289.12V556.788C4289.78 589.26 4303.14 620.18 4326.34 642.911C4349.54 665.643 4380.72 678.375 4413.2 678.375C4445.68 678.375 4476.86 665.643 4500.06 642.911C4523.26 620.18 4536.62 589.26 4537.28 556.788V216.272H4683.42V564.341C4683.42 709.366 4575.96 806.014 4413.74 806.014C4250.44 806.014 4143.03 709.366 4143.03 564.341Z" fill="#2F215F"/>
<path d="M5657.71 431.101V795.296H5511.62V454.727C5512.44 438.633 5509.97 422.541 5504.38 407.429C5498.78 392.316 5490.17 378.501 5479.07 366.82C5467.96 355.14 5454.6 345.839 5439.8 339.484C5424.99 333.128 5409.04 329.851 5392.92 329.851C5376.81 329.851 5360.86 333.128 5346.05 339.484C5331.25 345.839 5317.88 355.14 5306.78 366.82C5295.68 378.501 5287.07 392.316 5281.47 407.429C5275.88 422.541 5273.41 438.633 5274.23 454.727V795.296H5128.08V454.727C5128.9 438.633 5126.44 422.541 5120.84 407.429C5115.25 392.316 5106.63 378.501 5095.53 366.82C5084.43 355.14 5071.07 345.839 5056.26 339.484C5041.45 333.128 5025.51 329.851 5009.39 329.851C4993.28 329.851 4977.33 333.128 4962.52 339.484C4947.71 345.839 4934.35 355.14 4923.25 366.82C4912.15 378.501 4903.53 392.316 4897.94 407.429C4892.34 422.541 4889.88 438.633 4890.7 454.727V795.296H4744.55V216.269H4885.13L4887.33 285.005C4907.92 259.137 4934.29 238.466 4964.33 224.657C4994.37 210.848 5027.23 204.287 5060.27 205.502C5094.39 204.225 5128.3 211.519 5158.88 226.717C5189.47 241.915 5215.75 264.534 5235.35 292.507C5257.33 264.165 5285.77 241.483 5318.29 226.349C5350.81 211.216 5386.48 204.069 5422.32 205.502C5453.02 203.029 5483.9 207.089 5512.93 217.417C5541.95 227.745 5568.45 244.106 5590.69 265.421C5612.93 286.736 5630.41 312.521 5641.96 341.079C5653.51 369.636 5658.88 400.317 5657.71 431.101Z" fill="#2F215F"/>
</svg>
