<svg width="8829" height="2399" viewBox="0 0 8829 2399" fill="none" xmlns="http://www.w3.org/2000/svg">
<g clip-path="url(#clip0_34_1024)">
<g clip-path="url(#clip1_34_1024)">
<path d="M1925.13 1797.66L1428.93 2293.86C1380.19 2342.56 1314.12 2369.92 1245.22 2369.92C1176.33 2369.92 1110.25 2342.56 1061.52 2293.86L565.26 1797.66C587.238 1791.09 606.514 1777.62 620.229 1759.24C633.944 1740.85 641.367 1718.53 641.396 1695.6V870.458C641.497 850.788 635.953 831.502 625.424 814.887C727.542 767.478 841.761 752.591 952.62 772.242C1063.48 791.893 1165.62 845.132 1245.22 924.753C1324.84 845.168 1426.97 791.939 1537.81 772.255C1648.65 752.57 1762.87 767.38 1865.02 814.683C1854.58 831.413 1849.05 850.738 1849.05 870.458V1695.6C1849.01 1718.54 1856.4 1740.89 1870.11 1759.28C1883.83 1777.68 1903.13 1791.14 1925.13 1797.66Z" fill="#ED2272"/>
<path d="M641.195 870.402V1695.54C641.166 1718.48 633.744 1740.79 620.029 1759.18C606.315 1777.56 587.038 1791.04 565.06 1797.6L468.666 1701.15C406.314 1638.64 359.934 1562.03 333.45 1477.81C306.967 1393.58 301.157 1304.21 316.514 1217.27C331.871 1130.32 367.943 1048.35 421.678 978.295C475.412 908.237 545.23 852.15 625.224 814.781C635.763 831.41 641.306 850.715 641.195 870.402Z" fill="#2F215F"/>
<path d="M2021.59 1701.21L1925.14 1797.65C1903.05 1791.22 1883.65 1777.8 1869.85 1759.39C1856.04 1740.99 1848.59 1718.6 1848.6 1695.6V870.456C1848.6 850.736 1854.13 831.411 1864.57 814.681C1944.57 852.065 2014.4 908.162 2068.15 978.229C2121.89 1048.3 2157.98 1130.27 2173.35 1217.23C2188.73 1304.19 2182.94 1393.57 2156.48 1477.82C2130.02 1562.07 2083.66 1638.71 2021.33 1701.26L2021.59 1701.21Z" fill="#2F215F"/>
<path d="M2515.75 1192.24V1373.5C2515.75 1487.18 2470.59 1596.21 2390.2 1676.59C2309.81 1756.98 2200.79 1802.14 2087.1 1802.14H1955.24C1945.02 1802.14 1934.85 1800.68 1925.04 1797.8L2021.48 1701.36C2083.81 1638.81 2130.17 1562.17 2156.63 1477.92C2183.09 1393.67 2188.88 1304.29 2173.5 1217.33C2158.13 1130.37 2122.04 1048.4 2068.3 978.329C2014.55 908.261 1944.72 852.164 1864.72 814.78C1874.2 799.287 1887.51 786.491 1903.36 777.618C1919.21 768.745 1937.08 764.093 1955.24 764.108H2051.74C1999.64 590.694 1893.04 438.687 1747.74 330.629C1602.45 222.571 1426.2 164.215 1245.12 164.215C1064.05 164.215 887.801 222.571 742.506 330.629C597.211 438.687 490.609 590.694 438.508 764.108H534.698C552.909 764.076 570.818 768.759 586.681 777.701C602.545 786.643 615.824 799.541 625.224 815.137C545.143 852.418 475.235 908.464 421.429 978.519C367.623 1048.57 331.506 1130.57 316.142 1217.56C300.777 1304.55 306.619 1393.96 333.171 1478.2C359.723 1562.45 406.202 1639.05 468.667 1701.51L565.061 1797.96C555.198 1800.84 544.974 1802.3 534.698 1802.29H402.839C346.564 1802.29 290.839 1791.2 238.851 1769.66C186.862 1748.11 139.629 1716.54 99.8506 1676.73C60.0718 1636.92 28.5266 1589.67 7.01866 1537.66C-14.4893 1485.66 -25.5384 1429.93 -25.4982 1373.65V1192.39C-25.4804 1108.59 -0.896858 1026.63 45.2126 956.647C91.322 886.667 156.934 831.738 233.933 798.655C281.826 565.872 408.574 356.745 592.78 206.579C776.985 56.4136 1007.36 -25.5913 1245.02 -25.5913C1482.68 -25.5913 1713.06 56.4136 1897.27 206.579C2081.47 356.745 2208.22 565.872 2256.11 798.655C2333.13 831.697 2398.76 886.589 2444.91 956.542C2491.05 1026.5 2515.68 1108.44 2515.75 1192.24Z" fill="#00AEEF"/>
<path d="M3759.79 1333.34C3759.79 1471.88 3650.23 1564.3 3482.65 1564.3H3137.74V769.314H3478.31C3621.19 769.314 3716.82 853.104 3716.82 977.716C3716.59 1012.54 3706.48 1046.57 3687.65 1075.86C3668.82 1105.15 3642.06 1128.49 3610.47 1143.15C3652.79 1154.06 3690.34 1178.6 3717.32 1212.97C3744.31 1247.34 3759.23 1289.64 3759.79 1333.34ZM3289.25 1093.76H3441.77C3513.77 1093.76 3561.03 1054.01 3561.03 993.842C3561.03 934.751 3512.7 894.999 3442.84 894.999H3289.25V1093.76ZM3604.05 1329.05C3603.63 1313.04 3599.86 1297.3 3592.99 1282.84C3586.12 1268.38 3576.29 1255.52 3564.14 1245.09C3551.99 1234.66 3537.79 1226.89 3522.45 1222.29C3507.11 1217.69 3490.98 1216.35 3475.09 1218.37H3289.25V1438.61H3472.95C3551.38 1438.61 3604.05 1394.57 3604.05 1329.05Z" fill="#2F215F"/>
<path d="M3764.07 1274.25C3764.07 1094.83 3888.63 974.502 4074.53 974.502C4259.31 974.502 4383.92 1094.83 4383.92 1274.25C4383.92 1454.74 4259.31 1575.01 4074.53 1575.01C3888.78 1575.01 3764.07 1454.74 3764.07 1274.25ZM4232.41 1274.25C4232.41 1168.97 4169.03 1099.11 4074.53 1099.11C3978.9 1099.11 3915.52 1168.97 3915.52 1274.25C3915.52 1379.52 3978.9 1449.33 4074.53 1449.33C4169.03 1449.33 4232.41 1379.52 4232.41 1274.25Z" fill="#2F215F"/>
<path d="M4410.76 1333.34V985.272H4556.81V1325.79C4556.81 1358.7 4569.89 1390.27 4593.16 1413.54C4616.43 1436.82 4648 1449.89 4680.91 1449.89C4713.83 1449.89 4745.39 1436.82 4768.67 1413.54C4791.94 1390.27 4805.01 1358.7 4805.01 1325.79V985.272H4951.11V1333.34C4951.11 1478.37 4843.64 1575.01 4681.47 1575.01C4518.18 1575.01 4410.76 1478.37 4410.76 1333.34Z" fill="#2F215F"/>
<path d="M5925.46 1200.1V1564.29H5779.37V1223.73C5780.11 1207.67 5777.59 1191.63 5771.96 1176.58C5766.33 1161.53 5757.71 1147.78 5746.61 1136.15C5735.51 1124.53 5722.17 1115.28 5707.4 1108.95C5692.62 1102.63 5676.72 1099.37 5660.65 1099.37C5644.58 1099.37 5628.67 1102.63 5613.9 1108.95C5599.12 1115.28 5585.78 1124.53 5574.69 1136.15C5563.59 1147.78 5554.96 1161.53 5549.33 1176.58C5543.7 1191.63 5541.18 1207.67 5541.93 1223.73V1564.29H5395.83V1223.73C5396.58 1207.67 5394.06 1191.63 5388.43 1176.58C5382.8 1161.53 5374.17 1147.78 5363.08 1136.15C5351.98 1124.53 5338.64 1115.28 5323.86 1108.95C5309.09 1102.63 5293.18 1099.37 5277.11 1099.37C5261.04 1099.37 5245.14 1102.63 5230.36 1108.95C5215.59 1115.28 5202.25 1124.53 5191.15 1136.15C5180.05 1147.78 5171.43 1161.53 5165.8 1176.58C5160.17 1191.63 5157.65 1207.67 5158.39 1223.73V1564.29H5012.3V985.267H5153.04L5155.18 1054C5175.78 1028.13 5202.16 1007.46 5232.21 993.654C5262.25 979.846 5295.12 973.285 5328.17 974.5C5362.3 973.228 5396.2 980.523 5426.78 995.721C5457.36 1010.92 5483.65 1033.54 5503.25 1061.5C5525.22 1033.16 5553.65 1010.48 5586.16 995.348C5618.68 980.214 5654.33 973.067 5690.17 974.5C5720.87 972.042 5751.74 976.114 5780.75 986.449C5809.76 996.784 5836.25 1013.15 5858.48 1034.46C5880.71 1055.77 5898.17 1081.55 5909.72 1110.1C5921.26 1138.65 5926.63 1169.32 5925.46 1200.1Z" fill="#2F215F"/>
<path d="M6629.05 1333.34C6629.05 1471.88 6519.49 1564.3 6351.86 1564.3H6007V769.314H6347.57C6490.45 769.314 6586.03 853.104 6586.03 977.716C6585.81 1012.53 6575.7 1046.56 6556.88 1075.85C6538.06 1105.14 6511.31 1128.48 6479.74 1143.15C6522.05 1154.06 6559.6 1178.6 6586.59 1212.97C6613.57 1247.34 6628.49 1289.64 6629.05 1333.34ZM6158.51 1093.76H6311.03C6382.99 1093.76 6430.29 1054.01 6430.29 993.842C6430.29 934.751 6381.97 894.999 6312.11 894.999H6158.51V1093.76ZM6473.26 1329.05C6472.85 1313.05 6469.09 1297.31 6462.22 1282.84C6455.35 1268.38 6445.53 1255.52 6433.38 1245.09C6421.24 1234.66 6407.04 1226.89 6391.7 1222.29C6376.37 1217.69 6360.24 1216.35 6344.36 1218.37H6158.56V1438.61H6342.26C6420.7 1438.61 6473.26 1394.57 6473.26 1329.05Z" fill="#2F215F"/>
<path d="M6633.33 1274.25C6633.33 1094.83 6757.89 974.502 6943.79 974.502C7128.52 974.502 7253.18 1094.83 7253.18 1274.25C7253.18 1454.74 7128.52 1575.01 6943.79 1575.01C6757.89 1575.01 6633.33 1454.74 6633.33 1274.25ZM7101.68 1274.25C7101.68 1168.97 7038.3 1099.11 6943.79 1099.11C6848.16 1099.11 6784.73 1168.97 6784.73 1274.25C6784.73 1379.52 6848.16 1449.33 6943.79 1449.33C7038.3 1449.33 7101.68 1379.52 7101.68 1274.25Z" fill="#2F215F"/>
<path d="M7280.03 1333.34V985.272H7426.12V1325.79C7426.78 1358.26 7440.14 1389.18 7463.34 1411.91C7486.54 1434.64 7517.72 1447.37 7550.2 1447.37C7582.68 1447.37 7613.86 1434.64 7637.06 1411.91C7660.26 1389.18 7673.62 1358.26 7674.28 1325.79V985.272H7820.42V1333.34C7820.42 1478.37 7712.96 1575.01 7550.74 1575.01C7387.44 1575.01 7280.03 1478.37 7280.03 1333.34Z" fill="#2F215F"/>
<path d="M8794.71 1200.1V1564.3H8648.62V1223.73C8649.44 1207.63 8646.97 1191.54 8641.38 1176.43C8635.78 1161.32 8627.17 1147.5 8616.07 1135.82C8604.96 1124.14 8591.6 1114.84 8576.79 1108.48C8561.99 1102.13 8546.04 1098.85 8529.92 1098.85C8513.81 1098.85 8497.86 1102.13 8483.05 1108.48C8468.25 1114.84 8454.88 1124.14 8443.78 1135.82C8432.68 1147.5 8424.07 1161.32 8418.47 1176.43C8412.88 1191.54 8410.41 1207.63 8411.23 1223.73V1564.3H8265.08V1223.73C8265.9 1207.63 8263.44 1191.54 8257.84 1176.43C8252.25 1161.32 8243.63 1147.5 8232.53 1135.82C8221.43 1124.14 8208.07 1114.84 8193.26 1108.48C8178.45 1102.13 8162.5 1098.85 8146.39 1098.85C8130.27 1098.85 8114.33 1102.13 8099.52 1108.48C8084.71 1114.84 8071.35 1124.14 8060.25 1135.82C8049.15 1147.5 8040.53 1161.32 8034.94 1176.43C8029.34 1191.54 8026.88 1207.63 8027.7 1223.73V1564.3H7881.55V985.269H8022.13L8024.33 1054.01C8044.92 1028.14 8071.29 1007.47 8101.33 993.657C8131.37 979.848 8164.23 973.287 8197.27 974.502C8231.39 973.225 8265.3 980.519 8295.88 995.717C8326.46 1010.92 8352.75 1033.53 8372.35 1061.51C8394.33 1033.16 8422.77 1010.48 8455.29 995.349C8487.81 980.216 8523.48 973.069 8559.32 974.502C8590.02 972.029 8620.9 976.089 8649.93 986.417C8678.95 996.745 8705.45 1013.11 8727.69 1034.42C8749.93 1055.74 8767.41 1081.52 8778.96 1110.08C8790.51 1138.64 8795.88 1169.32 8794.71 1200.1Z" fill="#2F215F"/>
</g>
</g>
<defs>
<clipPath id="clip0_34_1024">
<rect width="8828.02" height="2398.36" fill="white" transform="translate(0.0288086 0.0290527)"/>
</clipPath>
<clipPath id="clip1_34_1024">
<rect width="8820.22" height="2395.71" fill="white" transform="translate(-25.4983 -25.6661)"/>
</clipPath>
</defs>
</svg>
